<?xml version="1.0" encoding="utf-8"?>
<!-- Generator: Adobe Illustrator 15.1.0, SVG Export Plug-In  -->
<!DOCTYPE svg PUBLIC "-//W3C//DTD SVG 1.1//EN" "http://www.w3.org/Graphics/SVG/1.1/DTD/svg11.dtd" [
	<!ENTITY ns_flows "http://ns.adobe.com/Flows/1.0/">
]>
<svg version="1.1"
	 xmlns="http://www.w3.org/2000/svg" xmlns:xlink="http://www.w3.org/1999/xlink" xmlns:a="http://ns.adobe.com/AdobeSVGViewerExtensions/3.0/"
	 x="0px" y="0px" width="22px" height="22px" viewBox="0 0 22 22" overflow="visible" enable-background="new 0 0 22 22"
	 xml:space="preserve">
<defs>
</defs>
<path fill="#666666" d="M12.428,11.001l9.276-9.275c0.394-0.394,0.394-1.032,0-1.426s-1.032-0.394-1.426,0l-9.276,9.275l-9.28-9.279
	c-0.394-0.394-1.032-0.394-1.426,0s-0.394,1.032,0,1.426l9.28,9.279l-9.28,9.279c-0.394,0.394-0.394,1.032,0,1.426
	c0.197,0.197,0.455,0.296,0.713,0.296c0.258,0,0.516-0.099,0.713-0.296l9.28-9.279l9.276,9.275c0.197,0.197,0.455,0.295,0.713,0.295
	c0.258,0,0.516-0.098,0.713-0.295c0.394-0.394,0.394-1.032,0-1.426L12.428,11.001z"/>
</svg>
