<?xml version="1.0" encoding="utf-8"?>
<!-- Generator: Adobe Illustrator 15.1.0, SVG Export Plug-In  -->
<!DOCTYPE svg PUBLIC "-//W3C//DTD SVG 1.1//EN" "http://www.w3.org/Graphics/SVG/1.1/DTD/svg11.dtd" [
	<!ENTITY ns_flows "http://ns.adobe.com/Flows/1.0/">
]>
<svg version="1.1"
	 xmlns="http://www.w3.org/2000/svg" xmlns:xlink="http://www.w3.org/1999/xlink" xmlns:a="http://ns.adobe.com/AdobeSVGViewerExtensions/3.0/"
	 x="0px" y="0px" width="22px" height="22px" viewBox="0 0 22 22" overflow="visible" enable-background="new 0 0 22 22"
	 xml:space="preserve">
<defs>
</defs>
<path fill="#FFFFFF" d="M12.429,11.002l9.276-9.276c0.394-0.394,0.394-1.033,0-1.427s-1.033-0.394-1.427,0l-9.276,9.276l-9.28-9.28
	c-0.394-0.394-1.033-0.394-1.427,0s-0.394,1.033,0,1.427l9.28,9.28l-9.28,9.28c-0.394,0.394-0.394,1.033,0,1.427
	c0.197,0.197,0.455,0.295,0.713,0.295c0.258,0,0.516-0.099,0.713-0.295l9.28-9.28l9.276,9.276C20.475,21.901,20.733,22,20.992,22
	s0.516-0.099,0.713-0.295c0.394-0.394,0.394-1.033,0-1.427L12.429,11.002z"/>
</svg>
