<?xml version="1.0" encoding="utf-8"?>
<!-- Generator: Adobe Illustrator 15.1.0, SVG Export Plug-In  -->
<!DOCTYPE svg PUBLIC "-//W3C//DTD SVG 1.1//EN" "http://www.w3.org/Graphics/SVG/1.1/DTD/svg11.dtd" [
	<!ENTITY ns_flows "http://ns.adobe.com/Flows/1.0/">
]>
<svg version="1.1"
	 xmlns="http://www.w3.org/2000/svg" xmlns:xlink="http://www.w3.org/1999/xlink" xmlns:a="http://ns.adobe.com/AdobeSVGViewerExtensions/3.0/"
	 x="0px" y="0px" width="61px" height="61px" viewBox="0.343 0.114 61 61"
	 overflow="visible" enable-background="new 0.343 0.114 61 61" xml:space="preserve">
<defs>
</defs>
<path fill="#0099FF" d="M30.5,61C13.682,61,0,47.317,0,30.5C0,13.682,13.682,0,30.5,0S61,13.682,61,30.5
	C61,47.317,47.318,61,30.5,61z M30.5,2.135C14.86,2.135,2.135,14.86,2.135,30.5c0,15.64,12.725,28.365,28.365,28.365
	S58.864,46.14,58.864,30.5C58.864,14.86,46.14,2.135,30.5,2.135z"/>
<path fill="#0099FF" d="M41.538,41.182h-22.81c-0.589,0-1.068-0.479-1.068-1.067V21.11c0-0.589,0.479-1.067,1.068-1.067H36.49
	c0.59,0,1.068,0.479,1.068,1.067c0,0.59-0.479,1.068-1.068,1.068H19.795v16.868H40.47v-9.571c0-0.589,0.478-1.067,1.067-1.067
	c0.59,0,1.068,0.479,1.068,1.067v10.64C42.605,40.704,42.127,41.182,41.538,41.182z"/>
<path fill="#0099FF" d="M29.322,35.945c-0.283,0-0.555-0.112-0.755-0.312l-5.648-5.647c-0.417-0.418-0.417-1.093,0-1.51
	c0.417-0.418,1.093-0.418,1.51,0l4.893,4.892L42.24,20.443c0.417-0.417,1.093-0.417,1.51,0c0.417,0.416,0.417,1.093,0,1.51
	l-13.673,13.68C29.877,35.833,29.605,35.945,29.322,35.945z"/>
</svg>
