<?xml version="1.0" encoding="utf-8"?>
<!-- Generator: Adobe Illustrator 15.1.0, SVG Export Plug-In  -->
<!DOCTYPE svg PUBLIC "-//W3C//DTD SVG 1.1//EN" "http://www.w3.org/Graphics/SVG/1.1/DTD/svg11.dtd" [
	<!ENTITY ns_flows "http://ns.adobe.com/Flows/1.0/">
]>
<svg version="1.1"
	 xmlns="http://www.w3.org/2000/svg" xmlns:xlink="http://www.w3.org/1999/xlink" xmlns:a="http://ns.adobe.com/AdobeSVGViewerExtensions/3.0/"
	 x="0px" y="0px" width="61px" height="61px" viewBox="0 0 61 61" overflow="visible" enable-background="new 0 0 61 61"
	 xml:space="preserve">
<defs>
</defs>
<rect x="18.45" y="19.083" fill="#0099FF" width="24.099" height="3.64"/>
<path fill="#0099FF" d="M30.5,0C13.682,0,0,13.683,0,30.5S13.682,61,30.5,61C47.318,61,61,47.317,61,30.5S47.318,0,30.5,0z
	 M44.684,42.984c0,0.59-0.478,1.067-1.067,1.067H17.381c-0.589,0-1.068-0.478-1.068-1.067V18.016c0-0.59,0.479-1.068,1.068-1.068
	h26.235c0.589,0,1.067,0.479,1.067,1.068V42.984z"/>
<path fill="#0099FF" d="M18.45,41.917h24.099V24.858H18.45V41.917z M39.312,27.224c0.615,0,1.113,0.501,1.113,1.113
	c0,0.615-0.499,1.114-1.113,1.114c-0.618,0-1.114-0.499-1.114-1.114C38.198,27.725,38.694,27.224,39.312,27.224z M39.312,32.265
	c0.615,0,1.113,0.5,1.113,1.113c0,0.617-0.499,1.114-1.113,1.114c-0.618,0-1.114-0.497-1.114-1.114
	C38.198,32.765,38.694,32.265,39.312,32.265z M33.831,27.224c0.613,0,1.113,0.501,1.113,1.113c0,0.615-0.5,1.114-1.113,1.114
	c-0.618,0-1.118-0.499-1.118-1.114C32.713,27.725,33.213,27.224,33.831,27.224z M33.831,32.265c0.613,0,1.113,0.5,1.113,1.113
	c0,0.617-0.5,1.114-1.113,1.114c-0.618,0-1.118-0.497-1.118-1.114C32.713,32.765,33.213,32.265,33.831,32.265z M33.831,37.308
	c0.613,0,1.113,0.5,1.113,1.113c0,0.618-0.5,1.114-1.113,1.114c-0.618,0-1.118-0.496-1.118-1.114
	C32.713,37.808,33.213,37.308,33.831,37.308z M28.345,27.224c0.618,0,1.116,0.501,1.116,1.113c0,0.615-0.499,1.114-1.116,1.114
	c-0.615,0-1.113-0.499-1.113-1.114C27.232,27.725,27.73,27.224,28.345,27.224z M28.345,32.265c0.618,0,1.116,0.5,1.116,1.113
	c0,0.617-0.499,1.114-1.116,1.114c-0.615,0-1.113-0.497-1.113-1.114C27.232,32.765,27.73,32.265,28.345,32.265z M28.345,37.308
	c0.618,0,1.116,0.5,1.116,1.113c0,0.618-0.499,1.114-1.116,1.114c-0.615,0-1.113-0.496-1.113-1.114
	C27.232,37.808,27.73,37.308,28.345,37.308z M22.864,32.265c0.618,0,1.114,0.5,1.114,1.113c0,0.617-0.497,1.114-1.114,1.114
	c-0.617,0-1.113-0.497-1.113-1.114C21.751,32.765,22.248,32.265,22.864,32.265z M22.864,37.308c0.618,0,1.114,0.5,1.114,1.113
	c0,0.618-0.497,1.114-1.114,1.114c-0.617,0-1.113-0.496-1.113-1.114C21.751,37.808,22.248,37.308,22.864,37.308z"/>
</svg>
