<?xml version="1.0" encoding="utf-8"?>
<!-- Generator: Adobe Illustrator 15.1.0, SVG Export Plug-In  -->
<!DOCTYPE svg PUBLIC "-//W3C//DTD SVG 1.1//EN" "http://www.w3.org/Graphics/SVG/1.1/DTD/svg11.dtd" [
	<!ENTITY ns_flows "http://ns.adobe.com/Flows/1.0/">
]>
<svg version="1.1"
	 xmlns="http://www.w3.org/2000/svg" xmlns:xlink="http://www.w3.org/1999/xlink" xmlns:a="http://ns.adobe.com/AdobeSVGViewerExtensions/3.0/"
	 x="0px" y="0px" width="61px" height="61px" viewBox="0.343 0.114 61 61"
	 overflow="visible" enable-background="new 0.343 0.114 61 61" xml:space="preserve">
<defs>
</defs>
<path fill="#0099FF" d="M30.5,61C13.682,61,0,47.317,0,30.5C0,13.682,13.682,0,30.5,0S61,13.682,61,30.5
	C61,47.317,47.318,61,30.5,61z M30.5,2.135C14.86,2.135,2.135,14.86,2.135,30.5c0,15.64,12.725,28.365,28.365,28.365
	S58.864,46.14,58.864,30.5C58.864,14.86,46.14,2.135,30.5,2.135z"/>
<path fill="#0099FF" d="M29.804,28.451c0,0.615-0.499,1.114-1.116,1.114c-0.615,0-1.113-0.499-1.113-1.114
	c0-0.612,0.499-1.113,1.113-1.113C29.306,27.338,29.804,27.839,29.804,28.451z"/>
<path fill="#0099FF" d="M35.287,28.451c0,0.615-0.5,1.114-1.113,1.114c-0.618,0-1.118-0.499-1.118-1.114
	c0-0.612,0.5-1.113,1.118-1.113C34.787,27.338,35.287,27.839,35.287,28.451z"/>
<path fill="#0099FF" d="M40.768,28.451c0,0.615-0.499,1.114-1.113,1.114c-0.618,0-1.114-0.499-1.114-1.114
	c0-0.612,0.497-1.113,1.114-1.113C40.27,27.338,40.768,27.839,40.768,28.451z"/>
<circle fill="#0099FF" cx="28.689" cy="33.492" r="1.115"/>
<path fill="#0099FF" d="M35.287,33.492c0,0.617-0.5,1.114-1.113,1.114c-0.618,0-1.118-0.497-1.118-1.114
	c0-0.613,0.5-1.113,1.118-1.113C34.787,32.379,35.287,32.879,35.287,33.492z"/>
<circle fill="#0099FF" cx="39.654" cy="33.492" r="1.114"/>
<path fill="#0099FF" d="M29.804,38.535c0,0.618-0.499,1.114-1.116,1.114c-0.615,0-1.113-0.496-1.113-1.114
	c0-0.613,0.499-1.113,1.113-1.113C29.306,37.422,29.804,37.922,29.804,38.535z"/>
<circle fill="#0099FF" cx="23.208" cy="33.492" r="1.114"/>
<path fill="#0099FF" d="M24.321,38.535c0,0.618-0.497,1.114-1.114,1.114c-0.617,0-1.113-0.496-1.113-1.114
	c0-0.613,0.497-1.113,1.113-1.113C23.825,37.422,24.321,37.922,24.321,38.535z"/>
<path fill="#0099FF" d="M35.287,38.535c0,0.618-0.5,1.114-1.113,1.114c-0.618,0-1.118-0.496-1.118-1.114
	c0-0.613,0.5-1.113,1.118-1.113C34.787,37.422,35.287,37.922,35.287,38.535z"/>
<path fill="#0099FF" d="M43.959,24.973H17.724c-0.589,0-1.068-0.479-1.068-1.067c0-0.59,0.479-1.068,1.068-1.068h26.235
	c0.589,0,1.067,0.479,1.067,1.068C45.027,24.494,44.549,24.973,43.959,24.973z"/>
<path fill="#0099FF" d="M43.959,44.166H17.724c-0.589,0-1.068-0.478-1.068-1.067V18.13c0-0.59,0.479-1.068,1.068-1.068h26.235
	c0.589,0,1.067,0.479,1.067,1.068v24.969C45.027,43.688,44.549,44.166,43.959,44.166z M18.792,42.031h24.099V19.197H18.792V42.031z"
	/>
</svg>
