<?xml version="1.0" encoding="utf-8"?>
<!-- Generator: Adobe Illustrator 15.1.0, SVG Export Plug-In  -->
<!DOCTYPE svg PUBLIC "-//W3C//DTD SVG 1.1//EN" "http://www.w3.org/Graphics/SVG/1.1/DTD/svg11.dtd" [
	<!ENTITY ns_flows "http://ns.adobe.com/Flows/1.0/">
]>
<svg version="1.1"
	 xmlns="http://www.w3.org/2000/svg" xmlns:xlink="http://www.w3.org/1999/xlink" xmlns:a="http://ns.adobe.com/AdobeSVGViewerExtensions/3.0/"
	 x="0px" y="0px" width="61px" height="61px" viewBox="0 0 61 61" overflow="visible" enable-background="new 0 0 61 61"
	 xml:space="preserve">
<defs>
</defs>
<path fill="#0099FF" d="M30.498,0C13.681,0,0,13.682,0,30.5S13.681,61,30.498,61C47.317,61,61,47.318,61,30.5S47.317,0,30.498,0z
	 M14.431,38.428c-0.273,0-0.546-0.104-0.755-0.313c-0.417-0.417-0.417-1.093,0-1.51l5.846-5.844l-5.846-5.846
	c-0.417-0.417-0.417-1.092,0-1.51s1.093-0.417,1.51,0l5.845,5.845l5.847-5.845c0.417-0.417,1.093-0.417,1.51,0s0.417,1.093,0,1.51
	l-5.846,5.846l5.846,5.847c0.417,0.417,0.417,1.092,0,1.51c-0.208,0.208-0.482,0.313-0.755,0.313s-0.546-0.104-0.755-0.313
	l-5.847-5.846l-5.845,5.844C14.977,38.323,14.704,38.428,14.431,38.428z M43.366,43.529c0,0.589-0.478,1.068-1.068,1.068H21.031
	c-0.589,0-1.068-0.479-1.068-1.068v-4.271c0-0.589,0.479-1.068,1.068-1.068c0.59,0,1.068,0.479,1.068,1.068v3.204H41.23V19.058H22.1
	v3.204c0,0.59-0.479,1.068-1.068,1.068c-0.589,0-1.068-0.478-1.068-1.068v-4.271c0-0.59,0.479-1.068,1.068-1.068h21.267
	c0.59,0,1.068,0.478,1.068,1.068V43.529z"/>
</svg>
