<?xml version="1.0" encoding="utf-8"?>
<!-- Generator: Adobe Illustrator 15.1.0, SVG Export Plug-In  -->
<!DOCTYPE svg PUBLIC "-//W3C//DTD SVG 1.1//EN" "http://www.w3.org/Graphics/SVG/1.1/DTD/svg11.dtd" [
	<!ENTITY ns_flows "http://ns.adobe.com/Flows/1.0/">
]>
<svg version="1.1"
	 xmlns="http://www.w3.org/2000/svg" xmlns:xlink="http://www.w3.org/1999/xlink" xmlns:a="http://ns.adobe.com/AdobeSVGViewerExtensions/3.0/"
	 x="0px" y="0px" width="61px" height="61px" viewBox="-0.114 0.114 61 61"
	 overflow="visible" enable-background="new -0.114 0.114 61 61" xml:space="preserve">
<defs>
</defs>
<path fill="#0099FF" d="M30.498,61C13.681,61,0,47.318,0,30.5S13.681,0,30.498,0C47.317,0,61,13.682,61,30.5S47.317,61,30.498,61z
	 M30.498,2.135C14.859,2.135,2.136,14.86,2.136,30.5s12.723,28.365,28.362,28.365c15.641,0,28.367-12.725,28.367-28.365
	S46.139,2.135,30.498,2.135z"/>
<path fill="#0099FF" d="M14.316,38.542c-0.273,0-0.546-0.104-0.755-0.313c-0.417-0.417-0.417-1.093,0-1.51l13.202-13.2
	c0.417-0.417,1.093-0.417,1.51,0s0.417,1.093,0,1.51l-13.202,13.2C14.863,38.438,14.589,38.542,14.316,38.542z"/>
<path fill="#0099FF" d="M27.518,38.544c-0.273,0-0.546-0.104-0.755-0.313L13.561,25.029c-0.417-0.417-0.417-1.092,0-1.51
	s1.093-0.417,1.51,0l13.202,13.202c0.417,0.417,0.417,1.092,0,1.51C28.064,38.439,27.791,38.544,27.518,38.544z"/>
<path fill="#0099FF" d="M42.184,44.711H20.917c-0.589,0-1.068-0.479-1.068-1.068v-4.271c0-0.589,0.479-1.068,1.068-1.068
	c0.59,0,1.068,0.479,1.068,1.068v3.204h19.131V19.172H21.985v3.204c0,0.59-0.479,1.068-1.068,1.068
	c-0.589,0-1.068-0.478-1.068-1.068v-4.271c0-0.59,0.479-1.068,1.068-1.068h21.267c0.59,0,1.068,0.478,1.068,1.068v25.538
	C43.252,44.232,42.774,44.711,42.184,44.711z"/>
</svg>
