<?xml version="1.0" encoding="utf-8"?>
<!-- Generator: Adobe Illustrator 15.1.0, SVG Export Plug-In  -->
<!DOCTYPE svg PUBLIC "-//W3C//DTD SVG 1.1//EN" "http://www.w3.org/Graphics/SVG/1.1/DTD/svg11.dtd" [
	<!ENTITY ns_flows "http://ns.adobe.com/Flows/1.0/">
]>
<svg version="1.1"
	 xmlns="http://www.w3.org/2000/svg" xmlns:xlink="http://www.w3.org/1999/xlink" xmlns:a="http://ns.adobe.com/AdobeSVGViewerExtensions/3.0/"
	 x="0px" y="0px" width="61px" height="61px" viewBox="0 0 61 61" overflow="visible" enable-background="new 0 0 61 61"
	 xml:space="preserve">
<defs>
</defs>
<path fill="#0099FF" d="M30.5,0C13.682,0,0,13.682,0,30.5S13.682,61,30.5,61C47.318,61,61,47.318,61,30.5S47.318,0,30.5,0z
	 M23.513,22.918l6.25-6.252c0.193-0.193,0.46-0.313,0.755-0.313s0.562,0.12,0.755,0.313l6.254,6.252c0.417,0.417,0.417,1.093,0,1.51
	c-0.208,0.209-0.482,0.313-0.755,0.313s-0.546-0.104-0.755-0.313l-4.432-4.43v15.658c0,0.589-0.478,1.068-1.068,1.068
	c-0.589,0-1.067-0.479-1.067-1.068V19.999l-4.428,4.429c-0.416,0.417-1.092,0.417-1.51,0C23.096,24.012,23.096,23.335,23.513,22.918
	z M41.86,43.572c0,0.59-0.479,1.067-1.068,1.067H20.249c-0.589,0-1.068-0.478-1.068-1.067V27.911c0-0.589,0.479-1.067,1.068-1.067
	h5.815c0.589,0,1.068,0.479,1.068,1.067c0,0.59-0.479,1.068-1.068,1.068h-4.747v13.525h18.407V28.979h-4.747
	c-0.589,0-1.068-0.478-1.068-1.068c0-0.589,0.479-1.067,1.068-1.067h5.815c0.589,0,1.068,0.479,1.068,1.067V43.572z"/>
</svg>
