<?xml version="1.0" encoding="utf-8"?>
<!-- Generator: Adobe Illustrator 15.1.0, SVG Export Plug-In  -->
<!DOCTYPE svg PUBLIC "-//W3C//DTD SVG 1.1//EN" "http://www.w3.org/Graphics/SVG/1.1/DTD/svg11.dtd" [
	<!ENTITY ns_flows "http://ns.adobe.com/Flows/1.0/">
]>
<svg version="1.1"
	 xmlns="http://www.w3.org/2000/svg" xmlns:xlink="http://www.w3.org/1999/xlink" xmlns:a="http://ns.adobe.com/AdobeSVGViewerExtensions/3.0/"
	 x="0px" y="0px" width="61px" height="61px" viewBox="0.343 0.114 61 61"
	 overflow="visible" enable-background="new 0.343 0.114 61 61" xml:space="preserve">
<defs>
</defs>
<path fill="#0099FF" d="M30.5,61C13.682,61,0,47.318,0,30.5S13.682,0,30.5,0S61,13.682,61,30.5S47.318,61,30.5,61z M30.5,2.135
	C14.86,2.135,2.135,14.86,2.135,30.5c0,15.64,12.725,28.364,28.365,28.364S58.864,46.14,58.864,30.5
	C58.864,14.86,46.14,2.135,30.5,2.135z"/>
<path fill="#0099FF" d="M37.116,24.855c-0.273,0-0.546-0.104-0.755-0.313l-5.5-5.498l-5.496,5.498c-0.416,0.417-1.092,0.417-1.51,0
	c-0.417-0.417-0.417-1.093,0-1.51l6.25-6.252c0.4-0.4,1.11-0.4,1.51,0l6.254,6.252c0.417,0.417,0.417,1.093,0,1.51
	C37.663,24.751,37.389,24.855,37.116,24.855z"/>
<path fill="#0099FF" d="M41.135,44.754H20.592c-0.589,0-1.068-0.478-1.068-1.067V28.025c0-0.589,0.479-1.067,1.068-1.067h5.815
	c0.589,0,1.068,0.479,1.068,1.067c0,0.59-0.479,1.068-1.068,1.068H21.66v13.525h18.407V29.093H35.32
	c-0.589,0-1.068-0.478-1.068-1.068c0-0.589,0.479-1.067,1.068-1.067h5.815c0.589,0,1.068,0.479,1.068,1.067v15.661
	C42.203,44.276,41.724,44.754,41.135,44.754z"/>
<path fill="#0099FF" d="M30.861,36.838c-0.589,0-1.067-0.479-1.067-1.068V17.535c0-0.59,0.478-1.068,1.067-1.068
	c0.59,0,1.068,0.478,1.068,1.068V35.77C31.929,36.359,31.451,36.838,30.861,36.838z"/>
</svg>
