<?xml version="1.0" encoding="utf-8"?>
<!-- Generator: Adobe Illustrator 15.1.0, SVG Export Plug-In  -->
<!DOCTYPE svg PUBLIC "-//W3C//DTD SVG 1.1//EN" "http://www.w3.org/Graphics/SVG/1.1/DTD/svg11.dtd" [
	<!ENTITY ns_flows "http://ns.adobe.com/Flows/1.0/">
]>
<svg version="1.1"
	 xmlns="http://www.w3.org/2000/svg" xmlns:xlink="http://www.w3.org/1999/xlink" xmlns:a="http://ns.adobe.com/AdobeSVGViewerExtensions/3.0/"
	 x="0px" y="0px" width="61px" height="61px" viewBox="0 -0.001 61 61" overflow="visible" enable-background="new 0 -0.001 61 61"
	 xml:space="preserve">
<defs>
</defs>
<path fill="#0099FF" d="M30.499,0C13.681,0,0,13.682,0,30.499s13.681,30.499,30.499,30.499S61,47.316,61,30.499S47.317,0,30.499,0z
	 M30.499,48.917c-0.884,0-1.6-0.717-1.6-1.602s0.715-1.602,1.6-1.602c0.887,0,1.604,0.717,1.604,1.602S31.386,48.917,30.499,48.917z
	 M40.49,28.103c-1.489,3.624-3.792,5.28-5.641,6.61c-1.976,1.422-3.282,2.361-3.282,5.088v2.92c0,0.589-0.479,1.067-1.068,1.067
	s-1.067-0.478-1.067-1.067v-2.92c0-3.821,2.12-5.346,4.17-6.821c1.797-1.293,3.656-2.63,4.914-5.689
	c1.007-2.45,0.695-5.572-0.776-7.768c-1.041-1.553-3.142-3.405-7.24-3.405c-4.069,0-6.077,1.882-7.046,3.461
	c-1.251,2.039-1.434,4.704-0.455,6.631c0.267,0.525,0.057,1.168-0.468,1.436c-0.526,0.268-1.168,0.058-1.436-0.468
	c-1.303-2.564-1.086-6.066,0.539-8.715c1.772-2.889,4.921-4.48,8.866-4.48c3.933,0,7.134,1.545,9.015,4.352
	C41.394,21.139,41.777,24.974,40.49,28.103z"/>
</svg>
