<?xml version="1.0" encoding="utf-8"?>
<!-- Generator: Adobe Illustrator 15.1.0, SVG Export Plug-In  -->
<!DOCTYPE svg PUBLIC "-//W3C//DTD SVG 1.1//EN" "http://www.w3.org/Graphics/SVG/1.1/DTD/svg11.dtd" [
	<!ENTITY ns_flows "http://ns.adobe.com/Flows/1.0/">
]>
<svg version="1.1"
	 xmlns="http://www.w3.org/2000/svg" xmlns:xlink="http://www.w3.org/1999/xlink" xmlns:a="http://ns.adobe.com/AdobeSVGViewerExtensions/3.0/"
	 x="0px" y="0px" width="61px" height="61px" viewBox="-0.114 0.114 61 61"
	 overflow="visible" enable-background="new -0.114 0.114 61 61" xml:space="preserve">
<defs>
</defs>
<path fill="#0099FF" d="M30.498,61C13.681,61,0,47.318,0,30.5S13.681,0,30.498,0C47.317,0,61,13.682,61,30.5S47.317,61,30.498,61z
	 M30.498,2.136C14.859,2.136,2.136,14.86,2.136,30.5s12.723,28.364,28.362,28.364c15.641,0,28.367-12.724,28.367-28.364
	S46.139,2.136,30.498,2.136z"/>
<path fill="#0099FF" d="M33.253,38.022c-0.273,0-0.546-0.104-0.755-0.313c-0.417-0.417-0.417-1.093,0-1.51L45.7,23
	c0.417-0.417,1.093-0.417,1.51,0c0.417,0.417,0.417,1.093,0,1.51l-13.202,13.2C33.8,37.918,33.527,38.022,33.253,38.022z"/>
<path fill="#0099FF" d="M46.455,38.022c-0.273,0-0.546-0.104-0.755-0.313L32.499,24.507c-0.417-0.417-0.417-1.092,0-1.509
	c0.417-0.418,1.093-0.418,1.51,0L47.21,36.2c0.417,0.417,0.417,1.093,0,1.51C47.001,37.918,46.729,38.022,46.455,38.022z"/>
<path fill="#0099FF" d="M39.854,44.191H18.587c-0.59,0-1.068-0.478-1.068-1.067V17.585c0-0.589,0.478-1.068,1.068-1.068h21.267
	c0.589,0,1.068,0.479,1.068,1.068v4.271c0,0.589-0.479,1.068-1.068,1.068c-0.59,0-1.068-0.479-1.068-1.068v-3.204H19.655v23.403
	h19.131v-3.204c0-0.589,0.478-1.067,1.068-1.067c0.589,0,1.068,0.478,1.068,1.067v4.272C40.922,43.714,40.444,44.191,39.854,44.191z
	"/>
</svg>
