<?xml version="1.0" encoding="utf-8"?>
<!-- Generator: Adobe Illustrator 15.1.0, SVG Export Plug-In  -->
<!DOCTYPE svg PUBLIC "-//W3C//DTD SVG 1.1//EN" "http://www.w3.org/Graphics/SVG/1.1/DTD/svg11.dtd" [
	<!ENTITY ns_flows "http://ns.adobe.com/Flows/1.0/">
]>
<svg version="1.1"
	 xmlns="http://www.w3.org/2000/svg" xmlns:xlink="http://www.w3.org/1999/xlink" xmlns:a="http://ns.adobe.com/AdobeSVGViewerExtensions/3.0/"
	 x="0px" y="0px" width="61px" height="61px" viewBox="0 0 61 61" overflow="visible" enable-background="new 0 0 61 61"
	 xml:space="preserve">
<defs>
</defs>
<path fill="#0099FF" d="M30.498,0C13.681,0,0,13.682,0,30.5S13.681,61,30.498,61C47.317,61,61,47.318,61,30.5S47.317,0,30.498,0z
	 M41.037,43.01c0,0.59-0.479,1.067-1.068,1.067H18.702c-0.59,0-1.068-0.478-1.068-1.067V17.471c0-0.589,0.478-1.068,1.068-1.068
	h21.267c0.589,0,1.068,0.479,1.068,1.068v4.271c0,0.589-0.479,1.068-1.068,1.068c-0.59,0-1.068-0.479-1.068-1.068v-3.204H19.77
	v23.403H38.9v-3.204c0-0.589,0.479-1.067,1.068-1.067c0.589,0,1.068,0.478,1.068,1.067V43.01z M47.325,36.085
	c0.417,0.417,0.417,1.093,0,1.51c-0.209,0.208-0.482,0.313-0.755,0.313c-0.273,0-0.546-0.104-0.755-0.313l-5.846-5.845l-5.846,5.845
	c-0.209,0.208-0.482,0.313-0.755,0.313c-0.273,0-0.546-0.104-0.755-0.313c-0.417-0.417-0.417-1.093,0-1.51l5.846-5.846l-5.846-5.847
	c-0.417-0.417-0.417-1.092,0-1.509c0.417-0.418,1.093-0.418,1.51,0l5.846,5.846l5.846-5.844c0.417-0.417,1.093-0.417,1.51,0
	c0.417,0.417,0.417,1.093,0,1.51l-5.846,5.844L47.325,36.085z"/>
</svg>
