<?xml version="1.0" encoding="utf-8"?>
<!-- Generator: Adobe Illustrator 15.1.0, SVG Export Plug-In  -->
<!DOCTYPE svg PUBLIC "-//W3C//DTD SVG 1.1//EN" "http://www.w3.org/Graphics/SVG/1.1/DTD/svg11.dtd" [
	<!ENTITY ns_flows "http://ns.adobe.com/Flows/1.0/">
]>
<svg version="1.1"
	 xmlns="http://www.w3.org/2000/svg" xmlns:xlink="http://www.w3.org/1999/xlink" xmlns:a="http://ns.adobe.com/AdobeSVGViewerExtensions/3.0/"
	 x="0px" y="0px" width="61px" height="61px" viewBox="0 0 61 61" overflow="visible" enable-background="new 0 0 61 61"
	 xml:space="preserve">
<defs>
</defs>
<path fill="#0099FF" d="M29.543,26.206c0,0.59-0.479,1.068-1.068,1.068h-9.631l-0.002,17.643h23.317V16.574H29.543V26.206z
	 M37.17,39.566H24.158c-0.59,0-1.068-0.479-1.068-1.068c0-0.589,0.478-1.068,1.068-1.068H37.17c0.589,0,1.067,0.479,1.067,1.068
	C38.237,39.088,37.759,39.566,37.17,39.566z M38.237,33.101c0,0.59-0.478,1.068-1.067,1.068H24.158c-0.59,0-1.068-0.478-1.068-1.068
	s0.478-1.067,1.068-1.067H37.17C37.759,32.033,38.237,32.511,38.237,33.101z"/>
<polygon fill="#0099FF" points="27.407,18.084 20.354,25.138 27.407,25.138 "/>
<path fill="#0099FF" d="M30.5,0C13.682,0,0,13.682,0,30.5S13.682,61,30.5,61C47.317,61,61,47.318,61,30.5S47.317,0,30.5,0z
	 M44.294,45.984c0,0.589-0.479,1.067-1.068,1.067H17.773c-0.283,0-0.555-0.113-0.754-0.312c-0.201-0.201-0.313-0.472-0.313-0.755
	l0.002-19.778c0-0.143,0.029-0.282,0.083-0.411c0.054-0.13,0.132-0.247,0.23-0.344L27.72,14.752c0.097-0.098,0.214-0.176,0.344-0.23
	c0.129-0.054,0.268-0.083,0.411-0.083h14.752c0.589,0,1.068,0.478,1.068,1.067V45.984z"/>
</svg>
