<?xml version="1.0" encoding="utf-8"?>
<!-- Generator: Adobe Illustrator 15.1.0, SVG Export Plug-In  -->
<!DOCTYPE svg PUBLIC "-//W3C//DTD SVG 1.1//EN" "http://www.w3.org/Graphics/SVG/1.1/DTD/svg11.dtd" [
	<!ENTITY ns_flows "http://ns.adobe.com/Flows/1.0/">
]>
<svg version="1.1"
	 xmlns="http://www.w3.org/2000/svg" xmlns:xlink="http://www.w3.org/1999/xlink" xmlns:a="http://ns.adobe.com/AdobeSVGViewerExtensions/3.0/"
	 x="0px" y="0px" width="61px" height="61px" viewBox="0.104 0.114 61 61"
	 overflow="visible" enable-background="new 0.104 0.114 61 61" xml:space="preserve">
<defs>
</defs>
<path fill="#0099FF" d="M30.5,61C13.682,61,0,47.318,0,30.5S13.682,0,30.5,0C47.317,0,61,13.682,61,30.5S47.317,61,30.5,61z
	 M30.5,2.135C14.86,2.135,2.136,14.86,2.136,30.5c0,15.64,12.725,28.364,28.364,28.364c15.64,0,28.365-12.725,28.365-28.364
	C58.865,14.86,46.14,2.135,30.5,2.135z"/>
<path fill="#0099FF" d="M28.579,27.388H17.879c-0.589,0-1.067-0.478-1.067-1.068c0-0.589,0.478-1.067,1.067-1.067h9.632v-9.632
	c0-0.59,0.478-1.067,1.067-1.067c0.59,0,1.068,0.478,1.068,1.067V26.32C29.647,26.91,29.168,27.388,28.579,27.388z"/>
<path fill="#0099FF" d="M43.331,47.166H17.877c-0.283,0-0.555-0.113-0.754-0.312c-0.201-0.201-0.313-0.472-0.313-0.755l0.002-19.778
	c0-0.283,0.113-0.555,0.313-0.755l10.699-10.699c0.2-0.2,0.472-0.312,0.754-0.312h14.752c0.589,0,1.068,0.478,1.068,1.067v30.478
	C44.398,46.687,43.92,47.166,43.331,47.166z M18.946,45.03h23.317V16.688H29.021L18.948,26.762L18.946,45.03z"/>
<path fill="#0099FF" d="M37.274,34.283H24.262c-0.589,0-1.068-0.478-1.068-1.068s0.479-1.067,1.068-1.067h13.012
	c0.589,0,1.068,0.478,1.068,1.067S37.863,34.283,37.274,34.283z"/>
<path fill="#0099FF" d="M37.274,39.681H24.262c-0.589,0-1.068-0.479-1.068-1.068c0-0.589,0.479-1.068,1.068-1.068h13.012
	c0.589,0,1.068,0.479,1.068,1.068C38.342,39.202,37.863,39.681,37.274,39.681z"/>
</svg>
