<?xml version="1.0" encoding="utf-8"?>
<!-- Generator: Adobe Illustrator 15.1.0, SVG Export Plug-In  -->
<!DOCTYPE svg PUBLIC "-//W3C//DTD SVG 1.1//EN" "http://www.w3.org/Graphics/SVG/1.1/DTD/svg11.dtd" [
	<!ENTITY ns_flows "http://ns.adobe.com/Flows/1.0/">
]>
<svg version="1.1"
	 xmlns="http://www.w3.org/2000/svg" xmlns:xlink="http://www.w3.org/1999/xlink" xmlns:a="http://ns.adobe.com/AdobeSVGViewerExtensions/3.0/"
	 x="0px" y="0px" width="61px" height="61px" viewBox="0 -0.001 61 61" overflow="visible" enable-background="new 0 -0.001 61 61"
	 xml:space="preserve">
<defs>
</defs>
<path fill="#0099FF" d="M30.499,0C13.682,0,0,13.682,0,30.499c0,16.817,13.682,30.499,30.499,30.499
	C47.317,60.998,61,47.316,61,30.499C61,13.682,47.317,0,30.499,0z M30.499,58.862c-15.639,0-28.363-12.724-28.363-28.363
	S14.86,2.135,30.499,2.135c15.641,0,28.366,12.724,28.366,28.364S46.14,58.862,30.499,58.862z"/>
<path fill="#0099FF" d="M17.949,19.287c0-0.59-0.479-1.068-1.068-1.068c-0.589,0-1.068,0.478-1.068,1.068v7.619h-1.168v3.126h1.168
	V41.71c0,0.59,0.479,1.068,1.068,1.068c0.59,0,1.068-0.478,1.068-1.068V30.032h1.167v-3.126h-1.167V19.287z"/>
<path fill="#0099FF" d="M27.029,19.287c0-0.59-0.478-1.068-1.068-1.068s-1.068,0.478-1.068,1.068v12.196h-1.168v3.126h1.168v7.101
	c0,0.59,0.478,1.068,1.068,1.068s1.068-0.478,1.068-1.068v-7.101h1.167v-3.126h-1.167V19.287z"/>
<path fill="#0099FF" d="M36.109,19.287c0-0.59-0.478-1.068-1.068-1.068s-1.068,0.478-1.068,1.068v2.986h-1.167v3.126h1.167V41.71
	c0,0.59,0.478,1.068,1.068,1.068s1.068-0.478,1.068-1.068V25.399h1.168v-3.126h-1.168V19.287z"/>
<path fill="#0099FF" d="M45.19,19.287c0-0.59-0.479-1.068-1.068-1.068s-1.068,0.478-1.068,1.068V34.38h-1.167v3.125h1.167v4.205
	c0,0.59,0.479,1.068,1.068,1.068S45.19,42.3,45.19,41.71v-4.205h1.168V34.38H45.19V19.287z"/>
</svg>
