<?xml version="1.0" encoding="utf-8"?>
<!-- Generator: Adobe Illustrator 15.1.0, SVG Export Plug-In  -->
<!DOCTYPE svg PUBLIC "-//W3C//DTD SVG 1.1//EN" "http://www.w3.org/Graphics/SVG/1.1/DTD/svg11.dtd" [
	<!ENTITY ns_flows "http://ns.adobe.com/Flows/1.0/">
]>
<svg version="1.1"
	 xmlns="http://www.w3.org/2000/svg" xmlns:xlink="http://www.w3.org/1999/xlink" xmlns:a="http://ns.adobe.com/AdobeSVGViewerExtensions/3.0/"
	 x="0px" y="0px" width="61px" height="61px" viewBox="0 -0.001 61 61" overflow="visible" enable-background="new 0 -0.001 61 61"
	 xml:space="preserve">
<defs>
</defs>
<path fill="#0099FF" d="M30.499,0C13.681,0,0,13.682,0,30.499c0,16.817,13.681,30.499,30.499,30.499S61,47.316,61,30.499
	C61,13.682,47.317,0,30.499,0z M19.116,30.032h-1.167V41.71c0,0.59-0.479,1.068-1.068,1.068c-0.589,0-1.068-0.478-1.068-1.068
	V30.032h-1.168v-3.126h1.168v-7.619c0-0.59,0.479-1.068,1.068-1.068c0.59,0,1.068,0.478,1.068,1.068v7.619h1.167V30.032z
	 M28.196,34.609h-1.167v7.101c0,0.59-0.478,1.068-1.068,1.068s-1.068-0.478-1.068-1.068v-7.101h-1.168v-3.126h1.168V19.287
	c0-0.59,0.478-1.068,1.068-1.068s1.068,0.478,1.068,1.068v12.196h1.167V34.609z M37.277,25.399h-1.168V41.71
	c0,0.59-0.478,1.068-1.068,1.068c-0.59,0-1.068-0.478-1.068-1.068V25.399h-1.167v-3.126h1.167v-2.986
	c0-0.59,0.478-1.068,1.068-1.068c0.59,0,1.068,0.478,1.068,1.068v2.986h1.168V25.399z M46.358,37.506H45.19v4.205
	c0,0.59-0.479,1.068-1.068,1.068s-1.068-0.478-1.068-1.068v-4.205h-1.167V34.38h1.167V19.287c0-0.59,0.479-1.068,1.068-1.068
	s1.068,0.478,1.068,1.068V34.38h1.168V37.506z"/>
</svg>
