<?xml version="1.0" encoding="utf-8"?>
<!-- Generator: Adobe Illustrator 15.1.0, SVG Export Plug-In  -->
<!DOCTYPE svg PUBLIC "-//W3C//DTD SVG 1.1//EN" "http://www.w3.org/Graphics/SVG/1.1/DTD/svg11.dtd" [
	<!ENTITY ns_flows "http://ns.adobe.com/Flows/1.0/">
]>
<svg version="1.1"
	 xmlns="http://www.w3.org/2000/svg" xmlns:xlink="http://www.w3.org/1999/xlink" xmlns:a="http://ns.adobe.com/AdobeSVGViewerExtensions/3.0/"
	 x="0px" y="0px" width="61px" height="61px" viewBox="0 0 61 61" overflow="visible" enable-background="new 0 0 61 61"
	 xml:space="preserve">
<defs>
</defs>
<path fill="#0099FF" d="M30.5,61C13.682,61,0,47.318,0,30.5S13.682,0,30.5,0S61,13.682,61,30.5S47.318,61,30.5,61z M30.5,2.136
	C14.86,2.136,2.135,14.86,2.135,30.5S14.86,58.865,30.5,58.865S58.864,46.14,58.864,30.5S46.14,2.136,30.5,2.136z"/>
<path fill="#0099FF" d="M32.588,42.956c-8.009,0-14.524-6.516-14.524-14.524c0-8.008,6.516-14.522,14.524-14.522
	c8.007,0,14.521,6.514,14.521,14.522C47.109,36.44,40.595,42.956,32.588,42.956z M32.588,16.044
	c-6.832,0-12.389,5.557-12.389,12.387c0,6.831,5.557,12.389,12.389,12.389c6.83,0,12.386-5.558,12.386-12.389
	C44.974,21.602,39.417,16.044,32.588,16.044z"/>
<path fill="#0099FF" d="M15.696,47.087c-0.273,0-0.546-0.104-0.755-0.313c-0.417-0.417-0.417-1.092,0-1.51l7.744-7.744
	c0.417-0.417,1.093-0.417,1.51,0c0.417,0.417,0.417,1.092,0,1.509l-7.744,7.744C16.243,46.982,15.97,47.087,15.696,47.087z"/>
</svg>
