<?xml version="1.0" encoding="utf-8"?>
<!-- Generator: Adobe Illustrator 15.1.0, SVG Export Plug-In  -->
<!DOCTYPE svg PUBLIC "-//W3C//DTD SVG 1.1//EN" "http://www.w3.org/Graphics/SVG/1.1/DTD/svg11.dtd" [
	<!ENTITY ns_flows "http://ns.adobe.com/Flows/1.0/">
]>
<svg version="1.1"
	 xmlns="http://www.w3.org/2000/svg" xmlns:xlink="http://www.w3.org/1999/xlink" xmlns:a="http://ns.adobe.com/AdobeSVGViewerExtensions/3.0/"
	 x="0px" y="0px" width="61px" height="61px" viewBox="0 0 61 61" overflow="visible" enable-background="new 0 0 61 61"
	 xml:space="preserve">
<defs>
</defs>
<path fill="#0099FF" d="M32.588,16.044c-6.832,0-12.389,5.557-12.389,12.387c0,6.831,5.557,12.389,12.389,12.389
	c6.83,0,12.386-5.558,12.386-12.389C44.974,21.602,39.417,16.044,32.588,16.044z"/>
<path fill="#0099FF" d="M30.5,0C13.682,0,0,13.682,0,30.5S13.682,61,30.5,61C47.318,61,61,47.318,61,30.5S47.318,0,30.5,0z
	 M32.588,42.956c-3.443,0-6.606-1.21-9.099-3.22l-7.038,7.038c-0.208,0.208-0.481,0.313-0.755,0.313s-0.546-0.104-0.755-0.313
	c-0.417-0.417-0.417-1.093,0-1.51l6.993-6.994c-2.395-2.591-3.871-6.042-3.871-9.839c0-8.008,6.516-14.522,14.524-14.522
	c8.007,0,14.521,6.514,14.521,14.522C47.109,36.44,40.595,42.956,32.588,42.956z"/>
</svg>
