<?xml version="1.0" encoding="utf-8"?>
<!-- Generator: Adobe Illustrator 15.1.0, SVG Export Plug-In  -->
<!DOCTYPE svg PUBLIC "-//W3C//DTD SVG 1.1//EN" "http://www.w3.org/Graphics/SVG/1.1/DTD/svg11.dtd" [
	<!ENTITY ns_flows "http://ns.adobe.com/Flows/1.0/">
]>
<svg version="1.1"
	 xmlns="http://www.w3.org/2000/svg" xmlns:xlink="http://www.w3.org/1999/xlink" xmlns:a="http://ns.adobe.com/AdobeSVGViewerExtensions/3.0/"
	 x="0px" y="0px" width="61px" height="61px" viewBox="0 -0.001 61 61" overflow="visible" enable-background="new 0 -0.001 61 61"
	 xml:space="preserve">
<defs>
</defs>
<path fill="#0099FF" d="M24.009,21.341c-1.373,0.949-2.554,2.183-3.406,3.676c-1.499,2.623-1.885,5.67-1.09,8.582
	c0.7,2.561,2.243,4.746,4.389,6.252l5.393-9.351L24.009,21.341z"/>
<path fill="#0099FF" d="M25.765,40.896c1.463,0.665,3.047,1.031,4.649,1.031c4.051,0,7.815-2.185,9.823-5.701
	c0.83-1.454,1.306-3.039,1.443-4.656l-10.536-0.003L25.765,40.896z"/>
<path fill="#0099FF" d="M41.657,29.435c-0.065-0.604-0.166-1.207-0.329-1.803c-0.797-2.908-2.68-5.333-5.305-6.826
	c-1.708-0.978-3.642-1.495-5.594-1.495c-1.597,0-3.143,0.351-4.561,0.978l5.276,9.143L41.657,29.435z"/>
<path fill="#0099FF" d="M30.499,0C13.681,0,0,13.682,0,30.499s13.681,30.499,30.499,30.499S61,47.316,61,30.499S47.317,0,30.499,0z
	 M46.27,31.571l-1.547-0.001c-0.001,0-0.003,0.001-0.005,0.001h0H43.82c-0.081,1.147-0.299,2.28-0.676,3.377l2.2,0.979l-0.868,1.952
	l-2.191-0.974c-0.067,0.125-0.123,0.255-0.193,0.379C41.58,38.181,40.968,39,40.281,39.74l1.576,1.748l-1.587,1.43l-1.559-1.729
	c-0.921,0.721-1.932,1.32-3.006,1.781l0.725,2.231l-2.031,0.659l-0.719-2.21c-1.057,0.266-2.151,0.411-3.266,0.411
	c-0.081,0-0.162-0.015-0.244-0.016l-0.234,2.234l-2.123-0.221l0.235-2.236c-1.158-0.208-2.281-0.57-3.351-1.076l-0.331,0.574
	c-0.021,0.036-0.049,0.062-0.072,0.095l-0.731,1.265l-1.848-1.067l1.109-1.92c-0.992-0.676-1.871-1.476-2.636-2.374l-1.789,1.299
	l-1.256-1.727l1.79-1.299c-0.607-1.002-1.084-2.088-1.417-3.242l-2.184,0.463l-0.442-2.089l2.204-0.468
	c-0.145-1.161-0.146-2.326,0.012-3.473l-2.193-0.466l0.442-2.089l2.218,0.472c0.29-0.943,0.674-1.863,1.176-2.741
	c0.092-0.164,0.194-0.319,0.294-0.478l-1.896-1.378l1.255-1.727l1.911,1.389c0.769-0.876,1.645-1.645,2.601-2.289l-1.2-2.079
	l1.848-1.067l0.748,1.293c0.017,0.024,0.042,0.038,0.056,0.065l0.427,0.738c1.038-0.48,2.137-0.83,3.277-1.034l-0.257-2.457
	l2.123-0.221l0.259,2.47c0.078-0.001,0.155-0.008,0.233-0.008c1.071,0,2.133,0.145,3.169,0.399l0.776-2.392l2.031,0.66l-0.779,2.397
	c0.497,0.209,0.984,0.442,1.456,0.712c0.541,0.308,1.046,0.662,1.533,1.034l1.677-1.861l1.585,1.431l-1.666,1.85
	c0.776,0.82,1.432,1.743,1.976,2.736l2.292-1.02l0.868,1.952l-2.281,1.013c0.115,0.324,0.229,0.647,0.32,0.981
	c0.214,0.783,0.347,1.575,0.418,2.367l2.464,0.001V31.571z"/>
</svg>
