<?xml version="1.0" encoding="utf-8"?>
<!-- Generator: Adobe Illustrator 15.1.0, SVG Export Plug-In  -->
<!DOCTYPE svg PUBLIC "-//W3C//DTD SVG 1.1//EN" "http://www.w3.org/Graphics/SVG/1.1/DTD/svg11.dtd" [
	<!ENTITY ns_flows "http://ns.adobe.com/Flows/1.0/">
]>
<svg version="1.1"
	 xmlns="http://www.w3.org/2000/svg" xmlns:xlink="http://www.w3.org/1999/xlink" xmlns:a="http://ns.adobe.com/AdobeSVGViewerExtensions/3.0/"
	 x="0px" y="0px" width="61px" height="61px" viewBox="0.095 0.113 61 61"
	 overflow="visible" enable-background="new 0.095 0.113 61 61" xml:space="preserve">
<defs>
</defs>
<path fill="#0099FF" d="M30.499,60.998C13.682,60.998,0,47.316,0,30.499S13.682,0,30.499,0C47.317,0,61,13.682,61,30.499
	S47.317,60.998,30.499,60.998z M30.499,2.136C14.86,2.136,2.136,14.86,2.136,30.499c0,15.64,12.724,28.364,28.363,28.364
	c15.641,0,28.366-12.724,28.366-28.364C58.865,14.86,46.14,2.136,30.499,2.136z"/>
<path fill="#0099FF" d="M30.509,44.177c-2.326,0-4.629-0.615-6.66-1.777c-3.116-1.776-5.354-4.661-6.3-8.123
	s-0.486-7.086,1.295-10.204c2.388-4.185,6.863-6.783,11.68-6.783c2.324,0,4.625,0.613,6.654,1.775
	c3.118,1.774,5.358,4.657,6.305,8.116c0.948,3.463,0.489,7.093-1.295,10.218C39.799,41.58,35.324,44.177,30.509,44.177z
	 M30.523,19.425c-4.051,0-7.816,2.187-9.825,5.707c-1.499,2.623-1.885,5.67-1.09,8.582c0.796,2.911,2.678,5.337,5.3,6.832
	c1.71,0.979,3.646,1.496,5.601,1.496c4.051,0,7.815-2.185,9.824-5.701c1.5-2.629,1.888-5.682,1.09-8.595
	c-0.797-2.908-2.68-5.333-5.305-6.826C34.409,19.942,32.476,19.425,30.523,19.425z"/>
<path fill="#0099FF" d="M25.41,19.477l-1.752-3.032l-1.848,1.067l1.739,3.012C24.141,20.119,24.763,19.769,25.41,19.477z"/>
<path fill="#0099FF" d="M30.402,18.372l-0.372-3.543l-2.123,0.221l0.367,3.52C28.976,18.44,29.687,18.377,30.402,18.372z"/>
<path fill="#0099FF" d="M21.275,22.509l-2.778-2.019l-1.255,1.727l2.767,2.013C20.391,23.615,20.809,23.034,21.275,22.509z"/>
<path fill="#0099FF" d="M18.71,27.037l-3.262-0.694l-0.442,2.089l3.245,0.691C18.343,28.421,18.496,27.723,18.71,27.037z"/>
<path fill="#0099FF" d="M42.181,26.637l3.262-1.45l-0.868-1.952l-3.274,1.456C41.651,25.316,41.947,25.965,42.181,26.637z"/>
<path fill="#0099FF" d="M39.586,22.317l2.386-2.648l-1.585-1.431l-2.394,2.657C38.569,21.331,39.107,21.802,39.586,22.317z"/>
<path fill="#0099FF" d="M35.391,19.37l1.109-3.414l-2.031-0.66l-1.105,3.402C34.052,18.862,34.727,19.084,35.391,19.37z"/>
<path fill="#0099FF" d="M38.093,40.513l2.271,2.52l1.587-1.43L39.66,39.06C39.174,39.594,38.652,40.08,38.093,40.513z"/>
<path fill="#0099FF" d="M33.443,42.745l1.051,3.23l2.031-0.659l-1.059-3.257C34.811,42.347,34.135,42.576,33.443,42.745z"/>
<path fill="#0099FF" d="M41.401,36.584l3.17,1.41l0.868-1.952l-3.181-1.416C42.037,35.293,41.746,35.944,41.401,36.584z"/>
<path fill="#0099FF" d="M42.826,29.548c0.069,0.707,0.071,1.42,0.015,2.135l3.524,0.002V29.55L42.826,29.548z"/>
<path fill="#0099FF" d="M18.235,32.148l-3.251,0.69l0.442,2.089l3.234-0.686C18.456,33.558,18.318,32.859,18.235,32.148z"/>
<path fill="#0099FF" d="M28.254,42.887l-0.346,3.287l2.123,0.221l0.346-3.293C29.668,43.093,28.959,43.018,28.254,42.887z"/>
<path fill="#0099FF" d="M19.899,37.074l-2.662,1.932l1.256,1.727l2.657-1.929C20.684,38.259,20.262,37.684,19.899,37.074z"/>
<path fill="#0099FF" d="M24.379,41.473c-0.321-0.184-0.627-0.386-0.926-0.593l-1.644,2.847l1.848,1.067l1.648-2.853
	C24.994,41.796,24.684,41.646,24.379,41.473z"/>
<path fill="#0099FF" d="M44.813,31.686L44.813,31.686l-14.187-0.004c-0.589,0-1.067-0.479-1.067-1.068
	c0-0.589,0.478-1.067,1.067-1.067l0,0l14.186,0.004c0.59,0,1.068,0.479,1.068,1.068S45.403,31.686,44.813,31.686z"/>
<path fill="#0099FF" d="M30.647,31.723c-0.369,0-0.728-0.191-0.926-0.534L22.611,18.87c-0.295-0.511-0.12-1.164,0.391-1.458
	s1.164-0.12,1.458,0.391l7.11,12.319c0.295,0.511,0.12,1.164-0.391,1.459C31.011,31.677,30.828,31.723,30.647,31.723z"/>
<path fill="#0099FF" d="M23.535,43.97c-0.181,0-0.364-0.046-0.532-0.144c-0.511-0.294-0.687-0.947-0.392-1.458l7.087-12.288
	c0.294-0.512,0.947-0.687,1.458-0.392c0.511,0.294,0.686,0.947,0.392,1.458l-7.087,12.289C24.264,43.778,23.904,43.97,23.535,43.97z
	"/>
</svg>
