<?xml version="1.0" encoding="utf-8"?>
<!-- Generator: Adobe Illustrator 15.1.0, SVG Export Plug-In  -->
<!DOCTYPE svg PUBLIC "-//W3C//DTD SVG 1.1//EN" "http://www.w3.org/Graphics/SVG/1.1/DTD/svg11.dtd" [
	<!ENTITY ns_flows "http://ns.adobe.com/Flows/1.0/">
]>
<svg version="1.1"
	 xmlns="http://www.w3.org/2000/svg" xmlns:xlink="http://www.w3.org/1999/xlink" xmlns:a="http://ns.adobe.com/AdobeSVGViewerExtensions/3.0/"
	 x="0px" y="0px" width="61px" height="61px" viewBox="0.323 0.113 61 61"
	 overflow="visible" enable-background="new 0.323 0.113 61 61" xml:space="preserve">
<defs>
</defs>
<path fill="#0099FF" d="M30.499,60.998C13.682,60.998,0,47.316,0,30.499S13.682,0,30.499,0C47.317,0,61,13.682,61,30.499
	S47.317,60.998,30.499,60.998z M30.499,2.136c-15.639,0-28.363,12.724-28.363,28.363S14.86,58.863,30.499,58.863
	c15.641,0,28.366-12.724,28.366-28.364S46.14,2.136,30.499,2.136z"/>
<path fill="#0099FF" d="M31.467,36.954c0,0.534-0.434,0.965-0.968,0.965c-0.53,0-0.963-0.432-0.963-0.965
	c0-0.532,0.434-0.963,0.963-0.963C31.033,35.991,31.467,36.422,31.467,36.954z"/>
<path fill="#0099FF" d="M29.89,33.805l-0.661-7.456c-0.066-0.703,0.449-1.326,1.151-1.393c0.703-0.069,1.326,0.446,1.396,1.151
	c0.006,0.079,0.006,0.167,0,0.241l-0.664,7.456c-0.034,0.338-0.334,0.586-0.667,0.555C30.145,34.33,29.917,34.095,29.89,33.805z"/>
<path fill="#0099FF" d="M46.744,43.314c-0.007,0-0.014,0-0.021,0H14.926c-0.382,0-0.734-0.204-0.925-0.534
	c-0.19-0.331-0.19-0.737,0-1.068l15.896-27.537c0.382-0.661,1.468-0.661,1.85,0L47.554,41.55c0.161,0.187,0.258,0.43,0.258,0.696
	C47.812,42.836,47.334,43.314,46.744,43.314z M16.776,41.179h28.097L30.822,16.845L16.776,41.179z"/>
</svg>
