<?xml version="1.0" encoding="utf-8"?>
<!-- Generator: Adobe Illustrator 15.1.0, SVG Export Plug-In  -->
<!DOCTYPE svg PUBLIC "-//W3C//DTD SVG 1.1//EN" "http://www.w3.org/Graphics/SVG/1.1/DTD/svg11.dtd" [
	<!ENTITY ns_flows "http://ns.adobe.com/Flows/1.0/">
]>
<svg version="1.1"
	 xmlns="http://www.w3.org/2000/svg" xmlns:xlink="http://www.w3.org/1999/xlink" xmlns:a="http://ns.adobe.com/AdobeSVGViewerExtensions/3.0/"
	 x="0px" y="0px" width="61px" height="61px" viewBox="0 -0.001 61 61" overflow="visible" enable-background="new 0 -0.001 61 61"
	 xml:space="preserve">
<defs>
</defs>
<path fill="#0099FF" d="M16.453,41.064H44.55L30.499,16.73L16.453,41.064z M30.499,37.919c-0.53,0-0.963-0.432-0.963-0.965
	c0-0.532,0.434-0.963,0.963-0.963c0.534,0,0.968,0.431,0.968,0.963C31.467,37.488,31.033,37.919,30.499,37.919z M31.775,26.107
	c0.006,0.079,0.006,0.167,0,0.241l-0.663,7.456c-0.034,0.338-0.334,0.586-0.667,0.555c-0.301-0.029-0.528-0.265-0.555-0.555
	l-0.661-7.456c-0.066-0.703,0.449-1.326,1.151-1.393C31.083,24.887,31.707,25.402,31.775,26.107z"/>
<path fill="#0099FF" d="M30.499,0C13.681,0,0,13.682,0,30.499s13.681,30.499,30.499,30.499S61,47.316,61,30.499S47.317,0,30.499,0z
	 M46.42,43.2c-0.007,0-0.014,0-0.021,0H14.603c-0.382,0-0.734-0.204-0.925-0.534c-0.19-0.331-0.19-0.737,0-1.068l15.896-27.537
	c0.382-0.661,1.468-0.661,1.85,0L47.23,41.436c0.161,0.187,0.258,0.43,0.258,0.696C47.488,42.722,47.011,43.2,46.42,43.2z"/>
</svg>
